<svg id="visual" viewBox="0 0 900 600" width="900" height="600" xmlns="http://www.w3.org/2000/svg" xmlns:xlink="http://www.w3.org/1999/xlink" version="1.1"><rect x="0" y="0" width="900" height="600" fill="#fff"></rect><defs><linearGradient id="grad1_0" x1="33.3%" y1="0%" x2="100%" y2="100%"><stop offset="20%" stop-color="#4267b2" stop-opacity="1"></stop><stop offset="80%" stop-color="#4267b2" stop-opacity="1"></stop></linearGradient></defs><defs><linearGradient id="grad1_1" x1="33.3%" y1="0%" x2="100%" y2="100%"><stop offset="20%" stop-color="#4267b2" stop-opacity="1"></stop><stop offset="80%" stop-color="#ffffff" stop-opacity="1"></stop></linearGradient></defs><defs><linearGradient id="grad2_0" x1="0%" y1="0%" x2="66.7%" y2="100%"><stop offset="20%" stop-color="#4267b2" stop-opacity="1"></stop><stop offset="80%" stop-color="#4267b2" stop-opacity="1"></stop></linearGradient></defs><defs><linearGradient id="grad2_1" x1="0%" y1="0%" x2="66.7%" y2="100%"><stop offset="20%" stop-color="#ffffff" stop-opacity="1"></stop><stop offset="80%" stop-color="#4267b2" stop-opacity="1"></stop></linearGradient></defs><g transform="translate(900, 0)"><path d="M0 351.5C-18.2 321.9 -36.3 292.3 -57 286.4C-77.6 280.5 -100.7 298.2 -126.3 304.9C-151.9 311.5 -180.1 307 -192.2 287.7C-204.4 268.4 -200.6 234.2 -219.9 219.9C-239.3 205.6 -281.8 211.3 -292.3 195.3C-302.8 179.3 -281.3 141.7 -283.6 117.5C-286 93.3 -312.3 82.5 -327.6 65.2C-342.9 47.8 -347.2 23.9 -351.5 0L0 0Z" fill="#a6afd9"></path><path d="M0 175.8C-9.1 161 -18.2 146.2 -28.5 143.2C-38.8 140.2 -50.3 149.1 -63.1 152.4C-76 155.8 -90 153.5 -96.1 143.8C-102.2 134.2 -100.3 117.1 -110 110C-119.6 102.8 -140.9 105.6 -146.1 97.7C-151.4 89.7 -140.6 70.8 -141.8 58.7C-143 46.6 -156.1 41.3 -163.8 32.6C-171.4 23.9 -173.6 12 -175.8 0L0 0Z" fill="#4267b2"></path></g><g transform="translate(0, 600)"><path d="M0 -351.5C15.8 -316.1 31.6 -280.7 56.4 -283.4C81.2 -286.2 114.9 -327.1 134.5 -324.8C154.1 -322.4 159.6 -276.9 164.4 -246.1C169.3 -215.4 173.5 -199.5 189.5 -189.5C205.5 -179.5 233.2 -175.5 239.5 -160C245.7 -144.5 230.6 -117.4 243.9 -101C257.2 -84.7 299 -79 321.7 -64C344.4 -48.9 348 -24.5 351.5 0L0 0Z" fill="#a6afd9"></path><path d="M0 -175.8C7.9 -158.1 15.8 -140.3 28.2 -141.7C40.6 -143.1 57.5 -163.6 67.3 -162.4C77.1 -161.2 79.8 -138.4 82.2 -123.1C84.6 -107.7 86.8 -99.7 94.8 -94.8C102.7 -89.8 116.6 -87.8 119.7 -80C122.9 -72.2 115.3 -58.7 122 -50.5C128.6 -42.3 149.5 -39.5 160.8 -32C172.2 -24.5 174 -12.2 175.8 0L0 0Z" fill="#4267b2"></path></g></svg>